<mxfile host="app.diagrams.net" modified="2023-11-10T05:44:50.885Z" agent="Mozilla/5.0 (Macintosh; Intel Mac OS X 10_15_7) AppleWebKit/537.36 (KHTML, like Gecko) Chrome/117.0.0.0 Safari/537.36" version="22.1.0" etag="6tcDeDO_1-6_rjCaAnQ5" type="github">
  <diagram name="第 1 页" id="d4tM8XXwghv8bc2ZmK5b">
    <mxGraphModel>
      <root>
        <mxCell id="0" />
        <mxCell id="1" parent="0" />
      </root>
    </mxGraphModel>
  </diagram>
</mxfile>
